<?xml version="1.0" encoding="UTF-8" standalone="no"?>
<svg viewBox="0 0 166 44" version="1.1" xmlns="http://www.w3.org/2000/svg" xmlns:xlink="http://www.w3.org/1999/xlink" xmlns:sketch="http://www.bohemiancoding.com/sketch/ns">
    <!-- Generator: Sketch 3.2 (9961) - http://www.bohemiancoding.com/sketch -->
    <title>Slice 1</title>
    <desc>Created with Sketch.</desc>
    <defs></defs>
    <g id="Page-1" stroke="none" stroke-width="1" fill="none" fill-rule="evenodd" sketch:type="MSPage">
        <g id="logo-right" sketch:type="MSLayerGroup" fill="#ffffff">
            <g id="Page-1" sketch:type="MSShapeGroup">
                <g id="logo">
                    <g id="Group" transform="translate(135.000000, 0.000000)">
                        <path d="M30.342,10.001 C29.852,6.922 29.006,4.664 27.589,3.142 C26.214,1.665 24.334,0.914 21.805,0.786 C19.415,0.662 16.55,1.106 13.046,1.817 C9.978,2.439 7.584,3.266 5.906,4.187 C4.303,5.068 3.172,6.136 2.375,7.56 C1.597,8.952 1.119,10.708 0.836,12.993 C0.556,15.259 0.51,18.252 0.509,21.762 C0.509,23.7 0.532,25.432 0.602,26.978 C0.674,28.528 0.792,29.896 0.983,31.109 C1.174,32.328 1.579,33.394 1.948,34.334 C2.32,35.285 2.798,36.11 3.412,36.84 C6.131,39.763 9.691,40.541 10.128,40.67 L9.961,43.444 L14.881,41.942 L16.006,42.139 C18.192,42.559 20.133,42.772 21.803,42.695 C24.317,42.579 26.192,41.848 27.569,40.39 C28.986,38.888 29.84,36.653 30.338,33.587 C30.838,30.491 30.955,26.589 30.957,21.801 C30.959,17.013 30.836,13.111 30.342,10.001 Z M13.143,32.07 C12.721,32.011 12.341,31.95 11.997,31.889 C11.656,31.826 11.351,31.764 11.077,31.701 C10.803,31.637 10.563,31.573 10.351,31.507 C10.139,31.442 9.955,31.375 9.795,31.309 L18.466,20.173 C18.496,20.496 18.522,20.842 18.544,21.208 C18.566,21.572 18.582,21.957 18.596,22.357 C18.609,22.757 18.617,23.174 18.624,23.603 C18.632,24.031 18.633,24.472 18.633,24.922 C18.632,25.818 18.62,26.667 18.59,27.444 C18.561,28.222 18.515,28.929 18.448,29.544 C18.381,30.156 18.294,30.676 18.184,31.083 C18.073,31.49 17.937,31.782 17.775,31.94 C17.669,32.044 17.504,32.13 17.268,32.195 C17.032,32.257 16.73,32.299 16.349,32.314 C15.971,32.33 15.518,32.319 14.979,32.278 C14.448,32.237 13.839,32.169 13.143,32.07 Z M8.453,28.03 C8.435,27.778 8.421,27.513 8.408,27.237 C8.396,26.96 8.386,26.671 8.377,26.373 C8.369,26.075 8.364,25.765 8.36,25.449 C8.356,25.132 8.355,24.804 8.355,24.47 C8.355,23.688 8.365,22.939 8.387,22.242 C8.406,21.545 8.44,20.901 8.486,20.334 C8.532,19.768 8.592,19.277 8.667,18.886 C8.747,18.495 8.839,18.202 8.953,18.036 C9.048,17.896 9.225,17.773 9.468,17.667 C9.713,17.56 10.027,17.468 10.391,17.391 C10.76,17.312 11.183,17.246 11.643,17.193 C12.11,17.14 12.617,17.098 13.147,17.069 C13.457,17.051 13.762,17.038 14.062,17.029 C14.364,17.021 14.66,17.017 14.945,17.021 C15.232,17.023 15.507,17.033 15.768,17.049 C16.031,17.066 16.276,17.089 16.504,17.12 L8.453,28.03 Z M13.15,13.041 C12.345,13.131 11.56,13.229 10.886,13.357 C10.223,13.482 9.62,13.639 9.077,13.846 C8.544,14.051 8.022,14.305 7.605,14.633 C7.193,14.956 6.834,15.348 6.535,15.833 C6.26,16.278 6.051,16.781 5.893,17.347 C5.734,17.909 5.67,18.536 5.597,19.231 C5.521,19.925 5.479,20.689 5.455,21.526 C5.434,22.363 5.424,23.277 5.424,24.27 C5.424,25.24 5.479,26.145 5.504,26.982 C5.531,27.819 5.622,28.591 5.702,29.3 C5.781,30.009 5.896,30.656 6.058,31.243 C6.222,31.833 6.437,32.363 6.713,32.837 C7.013,33.352 7.369,33.772 7.78,34.122 C8.196,34.477 8.669,34.764 9.197,35.003 C9.735,35.246 10.287,35.441 10.944,35.616 C11.612,35.793 12.345,35.945 13.139,36.099 C13.952,36.26 14.733,36.402 15.472,36.497 C16.226,36.596 16.937,36.643 17.599,36.615 C18.27,36.588 18.89,36.478 19.449,36.26 C20.018,36.038 20.522,35.7 20.957,35.22 C21.366,34.765 21.684,34.206 21.933,33.546 C22.183,32.885 22.359,32.124 22.484,31.266 C22.609,30.407 22.682,29.454 22.723,28.41 C22.766,27.364 22.776,26.232 22.777,25.013 C22.777,23.765 22.772,22.619 22.735,21.565 C22.7,20.515 22.635,19.562 22.519,18.698 C22.403,17.839 22.234,17.074 21.992,16.402 C21.751,15.734 21.439,15.159 21.033,14.675 C20.6,14.157 20.094,13.772 19.523,13.492 C18.961,13.216 18.335,13.044 17.655,12.945 C16.987,12.851 16.269,12.828 15.507,12.854 C14.759,12.88 13.971,12.951 13.15,13.041 Z" id="Shape"></path>
                    </g>
                    <g id="Group" transform="translate(0.000000, 15.000000)">
                        <path d="M83.542,0.848 L80.789,0.848 C80.666,0.848 80.566,0.947 80.566,1.068 L80.566,3.493 C80.566,3.615 80.666,3.711 80.789,3.711 L83.542,3.711 C83.662,3.711 83.764,3.614 83.764,3.493 L83.764,1.068 C83.764,0.947 83.662,0.848 83.542,0.848" id="Shape"></path>
                        <path d="M10.97,0.903 L0.751,0.903 C0.63,0.903 0.531,1.002 0.531,1.125 L0.531,17.322 C0.531,17.442 0.631,17.541 0.751,17.541 L10.97,17.541 C11.092,17.541 11.191,17.442 11.191,17.322 L11.191,15.032 C11.191,14.91 11.092,14.811 10.97,14.811 L3.816,14.811 L3.816,10.321 L10.503,10.321 C10.626,10.321 10.725,10.224 10.725,10.102 L10.725,7.876 C10.725,7.755 10.626,7.657 10.503,7.657 L3.816,7.657 L3.816,3.656 L10.97,3.656 C11.092,3.656 11.191,3.559 11.191,3.436 L11.191,1.125 C11.191,1.001 11.092,0.903 10.97,0.903" id="Shape"></path>
                        <path d="M19.684,4.579 C18.463,4.579 17.186,4.975 15.68,5.821 L15.68,5.11 C15.68,4.986 15.58,4.89 15.458,4.89 L12.924,4.89 C12.803,4.89 12.704,4.987 12.704,5.11 L12.704,17.322 C12.704,17.442 12.803,17.541 12.924,17.541 L15.57,17.541 C15.692,17.541 15.79,17.442 15.79,17.322 L15.79,8.033 C17.165,7.488 18.21,7.223 18.977,7.223 C20.279,7.223 20.636,7.72 20.636,9.544 L20.636,17.322 C20.636,17.442 20.734,17.541 20.856,17.541 L23.544,17.541 C23.666,17.541 23.766,17.442 23.766,17.322 L23.766,9.544 C23.763,6.399 23.095,4.579 19.684,4.579" id="Shape"></path>
                        <path d="M32.473,4.579 C30.641,4.579 29.237,5.177 28.69,5.451 L28.69,1.07 C28.69,0.948 28.591,0.849 28.469,0.849 L25.824,0.849 C25.703,0.849 25.605,0.948 25.605,1.07 L25.605,17.323 C25.605,17.443 25.703,17.542 25.824,17.542 L28.469,17.542 C28.591,17.542 28.69,17.443 28.69,17.323 L28.69,7.876 C29.104,7.697 30.313,7.224 31.654,7.224 C33.094,7.224 33.532,7.776 33.532,9.59 L33.532,17.323 C33.532,17.443 33.632,17.542 33.753,17.542 L36.443,17.542 C36.564,17.542 36.663,17.443 36.663,17.323 L36.663,9.545 C36.664,6.157 35.332,4.579 32.473,4.579" id="Shape"></path>
                        <path d="M58.796,7.631 L58.796,14.515 C57.983,14.908 57.336,15.228 56.621,15.228 C54.977,15.228 54.203,14.258 54.203,12.201 L54.203,10.43 C54.203,7.887 55.162,7.457 56.819,7.457 C57.296,7.457 58.055,7.522 58.796,7.631 M61.919,0.848 L59.253,0.848 C59.129,0.848 59.031,0.947 59.031,1.068 L59.031,4.804 C58.166,4.651 57.369,4.579 56.532,4.579 C54.66,4.579 53.307,5.052 52.4,6.025 C51.498,6.993 51.059,8.432 51.059,10.43 L51.059,12.201 C51.059,14.081 51.479,15.523 52.31,16.48 C53.112,17.406 54.286,17.873 55.801,17.873 C57.337,17.873 58.483,17.404 59.207,16.972 L59.207,17.322 C59.207,17.442 59.306,17.541 59.429,17.541 L61.918,17.541 C62.037,17.541 62.138,17.442 62.138,17.322 L62.138,1.068 C62.139,0.947 62.038,0.848 61.919,0.848" id="Shape"></path>
                        <path d="M69.694,9.921 L68.697,9.524 C67.124,8.907 66.786,8.708 66.786,7.993 C66.786,7.205 67.323,7.066 68.841,7.066 C69.804,7.066 71.084,7.137 72.547,7.274 C72.609,7.278 72.669,7.257 72.716,7.217 C72.763,7.175 72.786,7.115 72.786,7.054 L72.786,5.253 C72.786,5.154 72.724,5.069 72.628,5.041 C71.957,4.852 70.209,4.578 68.797,4.578 C65.242,4.578 63.723,5.62 63.723,8.058 C63.723,9.947 64.701,11.07 67.213,12.066 L68.165,12.439 C69.998,13.169 70.32,13.364 70.32,14.172 C70.32,14.96 69.97,15.385 68.109,15.385 C66.933,15.385 65.607,15.254 64.726,15.166 L64.713,15.163 C64.485,15.142 64.289,15.121 64.138,15.11 C64.076,15.104 64.016,15.126 63.972,15.166 C63.923,15.208 63.9,15.269 63.9,15.329 L63.9,17.175 C63.9,17.277 63.966,17.36 64.063,17.388 C64.653,17.549 66.49,17.85 68.245,17.85 C69.958,17.85 71.265,17.506 72.129,16.829 C72.963,16.174 73.386,15.222 73.386,13.991 C73.364,11.987 72.537,11.073 69.694,9.921" id="Shape"></path>
                        <path d="M77.888,0.848 L75.221,0.848 C75.1,0.848 75.002,0.947 75.002,1.068 L75.002,17.322 C75.002,17.442 75.1,17.541 75.221,17.541 L77.888,17.541 C78.009,17.541 78.109,17.442 78.109,17.322 L78.109,1.068 C78.108,0.947 78.009,0.848 77.888,0.848" id="Shape"></path>
                        <path d="M109.986,7.368 C111.877,7.368 112.314,8.366 112.338,9.881 L107.638,9.881 C107.655,8.614 107.99,7.368 109.986,7.368 M109.986,4.579 C108.099,4.579 106.664,5.108 105.713,6.151 C104.755,7.199 104.271,8.795 104.271,10.894 L104.271,11.67 C104.271,13.956 104.711,15.469 105.654,16.435 C106.618,17.417 108.14,17.875 110.454,17.875 C112.013,17.875 113.545,17.7 115.004,17.361 C115.104,17.34 115.174,17.251 115.174,17.149 L115.174,15.201 C115.174,15.137 115.146,15.077 115.102,15.036 C115.058,14.994 114.995,14.972 114.932,14.98 C113.525,15.11 111.911,15.254 110.587,15.254 C107.572,15.254 107.356,14.158 107.356,12.354 L107.356,12.225 L115.485,12.225 C115.606,12.225 115.707,12.128 115.707,12.007 L115.707,11.163 C115.707,9.12 115.278,7.534 114.436,6.441 C113.482,5.206 111.984,4.579 109.986,4.579" id="Shape"></path>
                        <path d="M124.247,4.579 C123.025,4.579 121.75,4.975 120.241,5.821 L120.241,5.11 C120.241,4.986 120.142,4.89 120.021,4.89 L117.487,4.89 C117.364,4.89 117.266,4.987 117.266,5.11 L117.266,17.322 C117.266,17.442 117.364,17.541 117.487,17.541 L120.13,17.541 C120.252,17.541 120.35,17.442 120.35,17.322 L120.35,8.033 C121.727,7.488 122.769,7.223 123.538,7.223 C124.842,7.223 125.195,7.72 125.195,9.544 L125.195,17.322 C125.195,17.442 125.297,17.541 125.418,17.541 L128.106,17.541 C128.228,17.541 128.327,17.442 128.327,17.322 L128.327,9.544 C128.325,6.399 127.657,4.579 124.247,4.579" id="Shape"></path>
                        <path d="M83.497,4.535 L80.809,4.535 C80.689,4.535 80.59,4.634 80.59,4.756 L80.59,17.321 C80.59,17.441 80.689,17.54 80.809,17.54 L83.497,17.54 C83.62,17.54 83.719,17.441 83.719,17.321 L83.719,4.756 C83.719,4.634 83.62,4.535 83.497,4.535" id="Shape"></path>
                        <path d="M103.065,7.114 C103.185,7.114 103.286,7.014 103.286,6.893 L103.286,4.802 C103.286,4.68 103.185,4.581 103.065,4.581 L100.251,4.581 L100.251,1.069 C100.251,0.947 100.152,0.848 100.03,0.848 L97.363,0.848 C97.241,0.848 97.142,0.947 97.142,1.069 L97.142,4.581 L90.485,4.581 C90.467,4.581 90.455,4.581 90.436,4.582 C87.055,4.628 85.605,5.677 85.605,8.061 C85.605,9.949 86.584,11.071 89.096,12.067 L90.047,12.44 C91.876,13.17 92.203,13.365 92.203,14.173 C92.203,14.961 91.85,15.386 89.993,15.386 C88.817,15.386 87.487,15.255 86.606,15.167 L86.601,15.164 C86.366,15.143 86.171,15.122 86.019,15.111 C85.958,15.105 85.898,15.127 85.852,15.167 C85.804,15.209 85.779,15.27 85.779,15.332 L85.779,17.178 C85.779,17.278 85.847,17.362 85.944,17.39 C86.536,17.551 88.371,17.852 90.125,17.852 C91.837,17.852 93.146,17.508 94.011,16.831 C94.843,16.176 95.266,15.225 95.266,13.993 C95.248,11.988 94.417,11.073 91.577,9.922 L90.576,9.525 C89.006,8.908 88.667,8.71 88.667,7.994 C88.667,7.206 89.205,7.067 90.726,7.067 L97.143,7.105 L97.143,14.195 C97.143,16.843 98.133,17.874 100.669,17.874 C101.665,17.874 102.632,17.67 103.121,17.542 C103.216,17.519 103.286,17.432 103.286,17.331 L103.286,15.58 C103.286,15.518 103.262,15.456 103.213,15.415 C103.166,15.373 103.105,15.352 103.045,15.359 C102.615,15.399 101.838,15.43 101.31,15.43 C100.318,15.43 100.251,15.271 100.251,14.151 L100.251,7.114 L103.065,7.114 L103.065,7.114 Z" id="Shape"></path>
                        <path d="M49.049,15.037 C49.004,14.995 48.944,14.973 48.88,14.981 C48.357,15.03 47.801,15.078 47.242,15.122 C47.13,15.131 47.024,15.216 47.041,15.334 C47.116,15.91 47.159,16.332 47.268,17.271 C47.281,17.39 47.357,17.467 47.461,17.478 C48.041,17.447 48.615,17.41 49.157,17.346 C49.26,17.333 49.33,17.234 49.33,17.13 L49.122,15.203 C49.122,15.137 49.096,15.078 49.049,15.037" id="Shape"></path>
                        <path d="M48.383,6.44 C47.43,5.206 45.935,4.578 43.936,4.578 C42.05,4.578 40.612,5.107 39.662,6.15 C38.704,7.198 38.219,8.794 38.219,10.893 L38.219,11.669 C38.219,13.955 38.661,15.468 39.605,16.434 C40.568,17.416 42.093,17.54 44.402,17.54 C44.979,17.54 45.578,17.534 46.176,17.522 C46.285,17.515 46.384,17.44 46.378,17.327 C46.328,16.41 46.296,15.952 46.279,15.431 C46.275,15.304 46.195,15.209 46.077,15.204 L46.08,15.199 C45.545,15.229 45.018,15.252 44.536,15.252 C41.522,15.252 41.305,14.156 41.305,12.352 L41.305,12.223 L49.433,12.223 C49.557,12.223 49.653,12.126 49.653,12.005 L49.653,11.161 C49.652,9.119 49.227,7.534 48.383,6.44 L48.383,6.44 L48.383,6.44 Z M41.585,9.881 C41.606,8.614 41.942,7.368 43.936,7.368 C45.83,7.368 46.263,8.366 46.289,9.881 L41.585,9.881 L41.585,9.881 Z" id="Shape"></path>
                    </g>
                </g>
            </g>
        </g>
    </g>
</svg>