<?xml version="1.0" encoding="UTF-8" standalone="no"?>
<svg viewBox="0 0 166 44" version="1.1" xmlns="http://www.w3.org/2000/svg" xmlns:xlink="http://www.w3.org/1999/xlink" xmlns:sketch="http://www.bohemiancoding.com/sketch/ns">
    <title>Slice 1</title>
    <description>Created with Sketch (http://www.bohemiancoding.com/sketch)</description>
    <defs>
        <linearGradient x1="3.91552504%" y1="79.7470459%" x2="105.030133%" y2="19.2164006%" id="linearGradient-1">
            <stop stop-color="#C21C3E" offset="0%"></stop>
            <stop stop-color="#D81D45" offset="100%"></stop>
        </linearGradient>
    </defs>
    <g id="Page-1" stroke="none" stroke-width="1" fill="none" fill-rule="evenodd" sketch:type="MSPage">
        <g id="logo" sketch:type="MSLayerGroup" transform="translate(1.000000, 1.000000)">
            <g id="Group" transform="translate(135.000000, 0.000000)" sketch:type="MSShapeGroup">
                <path d="M29.342,9.001 C28.852,5.922 28.006,3.664 26.589,2.142 C25.214,0.665 23.334,-0.086 20.805,-0.214 C18.415,-0.338 15.55,0.106 12.046,0.817 C8.978,1.439 6.584,2.266 4.906,3.187 C3.303,4.068 2.172,5.136 1.375,6.56 C0.597,7.952 0.119,9.708 -0.164,11.993 C-0.444,14.259 -0.49,17.252 -0.491,20.762 C-0.491,22.7 -0.468,24.432 -0.398,25.978 C-0.326,27.528 -0.208,28.896 -0.017,30.109 C0.174,31.328 0.579,32.394 0.948,33.334 C1.32,34.285 1.798,35.11 2.412,35.84 C5.131,38.763 8.691,39.541 9.128,39.67 L8.961,42.444 L13.881,40.942 L15.006,41.139 C17.192,41.559 19.133,41.772 20.803,41.695 C23.317,41.579 25.192,40.848 26.569,39.39 C27.986,37.888 28.84,35.653 29.338,32.587 C29.838,29.491 29.955,25.589 29.957,20.801 C29.959,16.013 29.836,12.111 29.342,9.001 L29.342,9.001 Z" id="Shape" fill="url(#linearGradient-1)"></path>
                <path d="M12.143,31.07 C11.721,31.011 11.341,30.95 10.997,30.889 C10.656,30.826 10.351,30.764 10.077,30.701 C9.803,30.637 9.563,30.573 9.351,30.507 C9.139,30.442 8.955,30.375 8.795,30.309 L17.466,19.173 C17.496,19.496 17.522,19.842 17.544,20.208 C17.566,20.572 17.582,20.957 17.596,21.357 C17.609,21.757 17.617,22.174 17.624,22.603 C17.632,23.031 17.633,23.472 17.633,23.922 C17.632,24.818 17.62,25.667 17.59,26.444 C17.561,27.222 17.515,27.929 17.448,28.544 C17.381,29.156 17.294,29.676 17.184,30.083 C17.073,30.49 16.937,30.782 16.775,30.94 C16.669,31.044 16.504,31.13 16.268,31.195 C16.032,31.257 15.73,31.299 15.349,31.314 C14.971,31.33 14.518,31.319 13.979,31.278 C13.448,31.237 12.839,31.169 12.143,31.07 M7.453,27.03 C7.435,26.778 7.421,26.513 7.408,26.237 C7.396,25.96 7.386,25.671 7.377,25.373 C7.369,25.075 7.364,24.765 7.36,24.449 C7.356,24.132 7.355,23.804 7.355,23.47 C7.355,22.688 7.365,21.939 7.387,21.242 C7.406,20.545 7.44,19.901 7.486,19.334 C7.532,18.768 7.592,18.277 7.667,17.886 C7.747,17.495 7.839,17.202 7.953,17.036 C8.048,16.896 8.225,16.773 8.468,16.667 C8.713,16.56 9.027,16.468 9.391,16.391 C9.76,16.312 10.183,16.246 10.643,16.193 C11.11,16.14 11.617,16.098 12.147,16.069 C12.457,16.051 12.762,16.038 13.062,16.029 C13.364,16.021 13.66,16.017 13.945,16.021 C14.232,16.023 14.507,16.033 14.768,16.049 C15.031,16.066 15.276,16.089 15.504,16.12 L7.453,27.03 M12.15,12.041 C11.345,12.131 10.56,12.229 9.886,12.357 C9.223,12.482 8.62,12.639 8.077,12.846 C7.544,13.051 7.022,13.305 6.605,13.633 C6.193,13.956 5.834,14.348 5.535,14.833 C5.26,15.278 5.051,15.781 4.893,16.347 C4.734,16.909 4.67,17.536 4.597,18.231 C4.521,18.925 4.479,19.689 4.455,20.526 C4.434,21.363 4.424,22.277 4.424,23.27 C4.424,24.24 4.479,25.145 4.504,25.982 C4.531,26.819 4.622,27.591 4.702,28.3 C4.781,29.009 4.896,29.656 5.058,30.243 C5.222,30.833 5.437,31.363 5.713,31.837 C6.013,32.352 6.369,32.772 6.78,33.122 C7.196,33.477 7.669,33.764 8.197,34.003 C8.735,34.246 9.287,34.441 9.944,34.616 C10.612,34.793 11.345,34.945 12.139,35.099 C12.952,35.26 13.733,35.402 14.472,35.497 C15.226,35.596 15.937,35.643 16.599,35.615 C17.27,35.588 17.89,35.478 18.449,35.26 C19.018,35.038 19.522,34.7 19.957,34.22 C20.366,33.765 20.684,33.206 20.933,32.546 C21.183,31.885 21.359,31.124 21.484,30.266 C21.609,29.407 21.682,28.454 21.723,27.41 C21.766,26.364 21.776,25.232 21.777,24.013 C21.777,22.765 21.772,21.619 21.735,20.565 C21.7,19.515 21.635,18.562 21.519,17.698 C21.403,16.839 21.234,16.074 20.992,15.402 C20.751,14.734 20.439,14.159 20.033,13.675 C19.6,13.157 19.094,12.772 18.523,12.492 C17.961,12.216 17.335,12.044 16.655,11.945 C15.987,11.851 15.269,11.828 14.507,11.854 C13.759,11.88 12.971,11.951 12.15,12.041" id="Shape" fill="#FFFFFF"></path>
            </g>
            <g id="Group" transform="translate(0.000000, 15.000000)" fill="#000000" sketch:type="MSShapeGroup">
                <path d="M82.542,-0.152 L79.789,-0.152 C79.666,-0.152 79.566,-0.053 79.566,0.068 L79.566,2.493 C79.566,2.615 79.666,2.711 79.789,2.711 L82.542,2.711 C82.662,2.711 82.764,2.614 82.764,2.493 L82.764,0.068 C82.764,-0.053 82.662,-0.152 82.542,-0.152" id="Shape"></path>
                <path d="M9.97,-0.097 L-0.249,-0.097 C-0.37,-0.097 -0.469,0.002 -0.469,0.125 L-0.469,16.322 C-0.469,16.442 -0.369,16.541 -0.249,16.541 L9.97,16.541 C10.092,16.541 10.191,16.442 10.191,16.322 L10.191,14.032 C10.191,13.91 10.092,13.811 9.97,13.811 L2.816,13.811 L2.816,9.321 L9.503,9.321 C9.626,9.321 9.725,9.224 9.725,9.102 L9.725,6.876 C9.725,6.755 9.626,6.657 9.503,6.657 L2.816,6.657 L2.816,2.656 L9.97,2.656 C10.092,2.656 10.191,2.559 10.191,2.436 L10.191,0.125 C10.191,0.001 10.092,-0.097 9.97,-0.097" id="Shape"></path>
                <path d="M18.684,3.579 C17.463,3.579 16.186,3.975 14.68,4.821 L14.68,4.11 C14.68,3.986 14.58,3.89 14.458,3.89 L11.924,3.89 C11.803,3.89 11.704,3.987 11.704,4.11 L11.704,16.322 C11.704,16.442 11.803,16.541 11.924,16.541 L14.57,16.541 C14.692,16.541 14.79,16.442 14.79,16.322 L14.79,7.033 C16.165,6.488 17.21,6.223 17.977,6.223 C19.279,6.223 19.636,6.72 19.636,8.544 L19.636,16.322 C19.636,16.442 19.734,16.541 19.856,16.541 L22.544,16.541 C22.666,16.541 22.766,16.442 22.766,16.322 L22.766,8.544 C22.763,5.399 22.095,3.579 18.684,3.579" id="Shape"></path>
                <path d="M31.473,3.579 C29.641,3.579 28.237,4.177 27.69,4.451 L27.69,0.07 C27.69,-0.052 27.591,-0.151 27.469,-0.151 L24.824,-0.151 C24.703,-0.151 24.605,-0.052 24.605,0.07 L24.605,16.323 C24.605,16.443 24.703,16.542 24.824,16.542 L27.469,16.542 C27.591,16.542 27.69,16.443 27.69,16.323 L27.69,6.876 C28.104,6.697 29.313,6.224 30.654,6.224 C32.094,6.224 32.532,6.776 32.532,8.59 L32.532,16.323 C32.532,16.443 32.632,16.542 32.753,16.542 L35.443,16.542 C35.564,16.542 35.663,16.443 35.663,16.323 L35.663,8.545 C35.664,5.157 34.332,3.579 31.473,3.579" id="Shape"></path>
                <path d="M57.796,6.631 L57.796,13.515 C56.983,13.908 56.336,14.228 55.621,14.228 C53.977,14.228 53.203,13.258 53.203,11.201 L53.203,9.43 C53.203,6.887 54.162,6.457 55.819,6.457 C56.296,6.457 57.055,6.522 57.796,6.631 M60.919,-0.152 L58.253,-0.152 C58.129,-0.152 58.031,-0.053 58.031,0.068 L58.031,3.804 C57.166,3.651 56.369,3.579 55.532,3.579 C53.66,3.579 52.307,4.052 51.4,5.025 C50.498,5.993 50.059,7.432 50.059,9.43 L50.059,11.201 C50.059,13.081 50.479,14.523 51.31,15.48 C52.112,16.406 53.286,16.873 54.801,16.873 C56.337,16.873 57.483,16.404 58.207,15.972 L58.207,16.322 C58.207,16.442 58.306,16.541 58.429,16.541 L60.918,16.541 C61.037,16.541 61.138,16.442 61.138,16.322 L61.138,0.068 C61.139,-0.053 61.038,-0.152 60.919,-0.152" id="Shape"></path>
                <path d="M68.694,8.921 L67.697,8.524 C66.124,7.907 65.786,7.708 65.786,6.993 C65.786,6.205 66.323,6.066 67.841,6.066 C68.804,6.066 70.084,6.137 71.547,6.274 C71.609,6.278 71.669,6.257 71.716,6.217 C71.763,6.175 71.786,6.115 71.786,6.054 L71.786,4.253 C71.786,4.154 71.724,4.069 71.628,4.041 C70.957,3.852 69.209,3.578 67.797,3.578 C64.242,3.578 62.723,4.62 62.723,7.058 C62.723,8.947 63.701,10.07 66.213,11.066 L67.165,11.439 C68.998,12.169 69.32,12.364 69.32,13.172 C69.32,13.96 68.97,14.385 67.109,14.385 C65.933,14.385 64.607,14.254 63.726,14.166 L63.713,14.163 C63.485,14.142 63.289,14.121 63.138,14.11 C63.076,14.104 63.016,14.126 62.972,14.166 C62.923,14.208 62.9,14.269 62.9,14.329 L62.9,16.175 C62.9,16.277 62.966,16.36 63.063,16.388 C63.653,16.549 65.49,16.85 67.245,16.85 C68.958,16.85 70.265,16.506 71.129,15.829 C71.963,15.174 72.386,14.222 72.386,12.991 C72.364,10.987 71.537,10.073 68.694,8.921" id="Shape"></path>
                <path d="M76.888,-0.152 L74.221,-0.152 C74.1,-0.152 74.002,-0.053 74.002,0.068 L74.002,16.322 C74.002,16.442 74.1,16.541 74.221,16.541 L76.888,16.541 C77.009,16.541 77.109,16.442 77.109,16.322 L77.109,0.068 C77.108,-0.053 77.009,-0.152 76.888,-0.152" id="Shape"></path>
                <path d="M108.986,6.368 C110.877,6.368 111.314,7.366 111.338,8.881 L106.638,8.881 C106.655,7.614 106.99,6.368 108.986,6.368 M108.986,3.579 C107.099,3.579 105.664,4.108 104.713,5.151 C103.755,6.199 103.271,7.795 103.271,9.894 L103.271,10.67 C103.271,12.956 103.711,14.469 104.654,15.435 C105.618,16.417 107.14,16.875 109.454,16.875 C111.013,16.875 112.545,16.7 114.004,16.361 C114.104,16.34 114.174,16.251 114.174,16.149 L114.174,14.201 C114.174,14.137 114.146,14.077 114.102,14.036 C114.058,13.994 113.995,13.972 113.932,13.98 C112.525,14.11 110.911,14.254 109.587,14.254 C106.572,14.254 106.356,13.158 106.356,11.354 L106.356,11.225 L114.485,11.225 C114.606,11.225 114.707,11.128 114.707,11.007 L114.707,10.163 C114.707,8.12 114.278,6.534 113.436,5.441 C112.482,4.206 110.984,3.579 108.986,3.579" id="Shape"></path>
                <path d="M123.247,3.579 C122.025,3.579 120.75,3.975 119.241,4.821 L119.241,4.11 C119.241,3.986 119.142,3.89 119.021,3.89 L116.487,3.89 C116.364,3.89 116.266,3.987 116.266,4.11 L116.266,16.322 C116.266,16.442 116.364,16.541 116.487,16.541 L119.13,16.541 C119.252,16.541 119.35,16.442 119.35,16.322 L119.35,7.033 C120.727,6.488 121.769,6.223 122.538,6.223 C123.842,6.223 124.195,6.72 124.195,8.544 L124.195,16.322 C124.195,16.442 124.297,16.541 124.418,16.541 L127.106,16.541 C127.228,16.541 127.327,16.442 127.327,16.322 L127.327,8.544 C127.325,5.399 126.657,3.579 123.247,3.579" id="Shape"></path>
                <path d="M82.497,3.535 L79.809,3.535 C79.689,3.535 79.59,3.634 79.59,3.756 L79.59,16.321 C79.59,16.441 79.689,16.54 79.809,16.54 L82.497,16.54 C82.62,16.54 82.719,16.441 82.719,16.321 L82.719,3.756 C82.719,3.634 82.62,3.535 82.497,3.535" id="Shape"></path>
                <path d="M102.065,6.114 C102.185,6.114 102.286,6.014 102.286,5.893 L102.286,3.802 C102.286,3.68 102.185,3.581 102.065,3.581 L99.251,3.581 L99.251,0.069 C99.251,-0.053 99.152,-0.152 99.03,-0.152 L96.363,-0.152 C96.241,-0.152 96.142,-0.053 96.142,0.069 L96.142,3.581 L89.485,3.581 C89.467,3.581 89.455,3.581 89.436,3.582 C86.055,3.628 84.605,4.677 84.605,7.061 C84.605,8.949 85.584,10.071 88.096,11.067 L89.047,11.44 C90.876,12.17 91.203,12.365 91.203,13.173 C91.203,13.961 90.85,14.386 88.993,14.386 C87.817,14.386 86.487,14.255 85.606,14.167 L85.601,14.164 C85.366,14.143 85.171,14.122 85.019,14.111 C84.958,14.105 84.898,14.127 84.852,14.167 C84.804,14.209 84.779,14.27 84.779,14.332 L84.779,16.178 C84.779,16.278 84.847,16.362 84.944,16.39 C85.536,16.551 87.371,16.852 89.125,16.852 C90.837,16.852 92.146,16.508 93.011,15.831 C93.843,15.176 94.266,14.225 94.266,12.993 C94.248,10.988 93.417,10.073 90.577,8.922 L89.576,8.525 C88.006,7.908 87.667,7.71 87.667,6.994 C87.667,6.206 88.205,6.067 89.726,6.067 L96.143,6.105 L96.143,13.195 C96.143,15.843 97.133,16.874 99.669,16.874 C100.665,16.874 101.632,16.67 102.121,16.542 C102.216,16.519 102.286,16.432 102.286,16.331 L102.286,14.58 C102.286,14.518 102.262,14.456 102.213,14.415 C102.166,14.373 102.105,14.352 102.045,14.359 C101.615,14.399 100.838,14.43 100.31,14.43 C99.318,14.43 99.251,14.271 99.251,13.151 L99.251,6.114 L102.065,6.114 L102.065,6.114 Z" id="Shape"></path>
                <path d="M48.049,14.037 C48.004,13.995 47.944,13.973 47.88,13.981 C47.357,14.03 46.801,14.078 46.242,14.122 C46.13,14.131 46.024,14.216 46.041,14.334 C46.116,14.91 46.159,15.332 46.268,16.271 C46.281,16.39 46.357,16.467 46.461,16.478 C47.041,16.447 47.615,16.41 48.157,16.346 C48.26,16.333 48.33,16.234 48.33,16.13 L48.122,14.203 C48.122,14.137 48.096,14.078 48.049,14.037" id="Shape"></path>
                <path d="M47.383,5.44 C46.43,4.206 44.935,3.578 42.936,3.578 C41.05,3.578 39.612,4.107 38.662,5.15 C37.704,6.198 37.219,7.794 37.219,9.893 L37.219,10.669 C37.219,12.955 37.661,14.468 38.605,15.434 C39.568,16.416 41.093,16.54 43.402,16.54 C43.979,16.54 44.578,16.534 45.176,16.522 C45.285,16.515 45.384,16.44 45.378,16.327 C45.328,15.41 45.296,14.952 45.279,14.431 C45.275,14.304 45.195,14.209 45.077,14.204 L45.08,14.199 C44.545,14.229 44.018,14.252 43.536,14.252 C40.522,14.252 40.305,13.156 40.305,11.352 L40.305,11.223 L48.433,11.223 C48.557,11.223 48.653,11.126 48.653,11.005 L48.653,10.161 C48.652,8.119 48.227,6.534 47.383,5.44 L47.383,5.44 Z M40.585,8.881 C40.606,7.614 40.942,6.368 42.936,6.368 C44.83,6.368 45.263,7.366 45.289,8.881 L40.585,8.881 L40.585,8.881 Z" id="Shape"></path>
            </g>
        </g>
    </g>
</svg>